#define arch_width 14
#define arch_height 14
static unsigned char arch_bits[] = {
   0xc0, 0x00, 0xc0, 0x00, 0xe0, 0x01, 0xc0, 0x01, 0xd0, 0x03, 0xb0, 0x03,
   0xf8, 0x07, 0xf8, 0x07, 0x3c, 0x0b, 0x3c, 0x07, 0x3e, 0x1f, 0x0e, 0x1c,
   0x07, 0x38, 0x01, 0x20 };
