#define audio_width 14
#define audio_height 14
static unsigned char audio_bits[] = {
   0xc0, 0x21, 0xc0, 0x1d, 0xe0, 0x01, 0xe0, 0x01, 0xfe, 0x39, 0xfe, 0x01,
   0xfe, 0x01, 0xfe, 0x01, 0xfe, 0x39, 0xfe, 0x01, 0xe0, 0x01, 0xe0, 0x1d,
   0xc0, 0x21, 0xc0, 0x01 };
