#define calendar_width 14
#define calendar_height 14
static unsigned char calendar_bits[] = {
   0xff, 0x3f, 0xff, 0x3f, 0x03, 0x30, 0xff, 0x3f, 0x03, 0x30, 0x83, 0x30,
   0xc3, 0x30, 0xa3, 0x30, 0x83, 0x30, 0x83, 0x30, 0x83, 0x30, 0x03, 0x38,
   0xff, 0x2f, 0xff, 0x3f };
