#define clock_width 14
#define clock_height 14
static unsigned char clock_bits[] = {
   0xf0, 0x03, 0x0c, 0x0c, 0x02, 0x10, 0x42, 0x10, 0x41, 0x20, 0x41, 0x20,
   0x41, 0x20, 0x81, 0x20, 0x01, 0x21, 0x01, 0x22, 0x02, 0x14, 0x02, 0x10,
   0x0c, 0x0c, 0xf0, 0x03 };
