#define cloud_width 14
#define cloud_height 14
static unsigned char cloud_bits[] = {
   0x00, 0x00, 0x00, 0x00, 0xf0, 0x00, 0xf8, 0x39, 0xfc, 0x3e, 0x7e, 0x3f,
   0xff, 0x3f, 0xff, 0x3f, 0xfe, 0x1f, 0xfc, 0x0f, 0x00, 0x00, 0x00, 0x00,
   0x00, 0x00, 0x00, 0x00 };
