#define disk_width 14
#define disk_height 14
static unsigned char disk_bits[] = {
   0x00, 0x00, 0x00, 0x00, 0x00, 0x00, 0x00, 0x00, 0x00, 0x00, 0xf0, 0x03,
   0x08, 0x04, 0x64, 0x08, 0x22, 0x10, 0xff, 0x3f, 0x01, 0x20, 0xfd, 0x2f,
   0x01, 0x20, 0xff, 0x3f };
