#define ethernet_width 14
#define ethernet_height 14
static unsigned char ethernet_bits[] = {
   0x00, 0x00, 0xff, 0x3f, 0xdb, 0x36, 0xdb, 0x36, 0xdb, 0x36, 0xff, 0x3f,
   0xff, 0x3f, 0xff, 0x3f, 0xff, 0x3f, 0xff, 0x3f, 0xfc, 0x0f, 0xfc, 0x0f,
   0xe0, 0x01, 0x00, 0x00 };
