#define files_width 14
#define files_height 14
static unsigned char files_bits[] = {
   0x00, 0x00, 0xff, 0x15, 0x01, 0x20, 0x01, 0x20, 0xff, 0x3f, 0x01, 0x20,
   0xcd, 0x2c, 0xcd, 0x2c, 0x01, 0x20, 0xcd, 0x20, 0xcd, 0x20, 0x01, 0x20,
   0x01, 0x20, 0xff, 0x3f };
