#define info_width 14
#define info_height 14
static unsigned char info_bits[] = {
   0xf8, 0x07, 0xfc, 0x0f, 0x0e, 0x1c, 0xc7, 0x38, 0xc3, 0x30, 0x03, 0x30,
   0xc3, 0x30, 0xc3, 0x30, 0xc3, 0x30, 0xc3, 0x30, 0xc7, 0x38, 0x0e, 0x1c,
   0xfc, 0x0f, 0xf8, 0x07 };
