#define light_width 14
#define light_height 14
static unsigned char light_bits[] = {
   0x00, 0x00, 0x02, 0x10, 0xe4, 0x09, 0x10, 0x02, 0x08, 0x04, 0x0b, 0x34,
   0x08, 0x04, 0x08, 0x04, 0x12, 0x12, 0xe1, 0x21, 0xe0, 0x01, 0xe0, 0x01,
   0xe0, 0x01, 0xc0, 0x00 };
