#define mail_width 14
#define mail_height 14
static unsigned char mail_bits[] = {
   0x00, 0x00, 0x00, 0x00, 0xfe, 0x1f, 0xfd, 0x2f, 0xfb, 0x37, 0xf7, 0x3b,
   0xef, 0x3d, 0x1f, 0x3e, 0x3f, 0x3f, 0xff, 0x3f, 0xff, 0x3f, 0xff, 0x3f,
   0x00, 0x00, 0x00, 0x00 };
