#define next_width 14
#define next_height 14
static unsigned char next_bits[] = {
   0x00, 0x00, 0x00, 0x00, 0x00, 0x00, 0x03, 0x30, 0x1f, 0x30, 0xff, 0x30,
   0xff, 0x37, 0xff, 0x3f, 0xff, 0x37, 0xff, 0x30, 0x1f, 0x30, 0x03, 0x30,
   0x00, 0x00, 0x00, 0x00 };
