#define pause_width 14
#define pause_height 14
static unsigned char pause_bits[] = {
   0x00, 0x00, 0x00, 0x00, 0x18, 0x06, 0x18, 0x06, 0x18, 0x06, 0x18, 0x06,
   0x18, 0x06, 0x18, 0x06, 0x18, 0x06, 0x18, 0x06, 0x18, 0x06, 0x18, 0x06,
   0x00, 0x00, 0x00, 0x00 };
