#define plus_width 14
#define plus_height 14
static unsigned char plus_bits[] = {
   0x00, 0x00, 0x00, 0x00, 0xc0, 0x00, 0xc0, 0x00, 0xc0, 0x00, 0xc0, 0x00,
   0xfc, 0x0f, 0xfc, 0x0f, 0xc0, 0x00, 0xc0, 0x00, 0xc0, 0x00, 0xc0, 0x00,
   0x00, 0x00, 0x00, 0x00 };
