#define prev_width 14
#define prev_height 14
static unsigned char prev_bits[] = {
   0x00, 0x00, 0x00, 0x00, 0x00, 0x00, 0x03, 0x30, 0x03, 0x3e, 0xc3, 0x3f,
   0xfb, 0x3f, 0xff, 0x3f, 0xfb, 0x3f, 0xc3, 0x3f, 0x03, 0x3e, 0x03, 0x30,
   0x00, 0x00, 0x00, 0x00 };
