#define rain_width 14
#define rain_height 14
static unsigned char rain_bits[] = {
   0x00, 0x00, 0x00, 0x00, 0xf0, 0x00, 0xf8, 0x39, 0xfc, 0x3e, 0x7e, 0x3f,
   0xff, 0x3f, 0xff, 0x3f, 0xfe, 0x1f, 0xfc, 0x2f, 0x32, 0x30, 0xb6, 0x31,
   0xb6, 0x31, 0x86, 0x31 };
