#define right_width 14
#define right_height 14
static unsigned char right_bits[] = {
   0x00, 0x00, 0x00, 0x00, 0x00, 0x00, 0x8c, 0x01, 0x18, 0x03, 0x30, 0x06,
   0x60, 0x0c, 0x30, 0x06, 0x18, 0x03, 0x8c, 0x01, 0x00, 0x00, 0x00, 0x00,
   0x00, 0x00, 0x00, 0x00 };
