#define root_width 14
#define root_height 14
static unsigned char root_bits[] = {
   0xff, 0x3f, 0x01, 0x20, 0x61, 0x26, 0x61, 0x26, 0xf9, 0x2f, 0xf9, 0x2f,
   0x61, 0x26, 0x71, 0x27, 0xfd, 0x2f, 0x3d, 0x2f, 0x31, 0x23, 0x31, 0x23,
   0x01, 0x20, 0xff, 0x3f };
