#define snow_width 14
#define snow_height 14
static unsigned char snow_bits[] = {
   0x00, 0x00, 0x00, 0x00, 0x2a, 0x00, 0x1c, 0x0a, 0x3e, 0x04, 0x1c, 0x0a,
   0x2a, 0x00, 0x00, 0x02, 0xa8, 0x06, 0x70, 0x00, 0xf8, 0x30, 0x70, 0x30,
   0xa8, 0x00, 0x00, 0x00 };
