#define sun_width 14
#define sun_height 14
static unsigned char sun_bits[] = {
   0x4c, 0x0c, 0x58, 0x06, 0x51, 0x22, 0x03, 0x30, 0xe6, 0x19, 0xf0, 0x03,
   0xf7, 0x03, 0xf0, 0x3b, 0xf0, 0x03, 0xe6, 0x19, 0x03, 0x30, 0x91, 0x22,
   0x98, 0x06, 0x8c, 0x0c };
