#define term_width 14
#define term_height 14
static unsigned char term_bits[] = {
   0xff, 0x3f, 0x01, 0x20, 0x21, 0x20, 0xf1, 0x20, 0x29, 0x2c, 0x29, 0x2c,
   0x31, 0x20, 0x61, 0x20, 0xa1, 0x2c, 0xa1, 0x2c, 0x79, 0x20, 0x21, 0x20,
   0x01, 0x20, 0xff, 0x3f };
