#define translate_width 14
#define translate_height 14
static unsigned char translate_bits[] = {
   0x00, 0x00, 0x08, 0x00, 0x7f, 0x00, 0x20, 0x00, 0x14, 0x00, 0x0c, 0x00,
   0x13, 0x06, 0x20, 0x09, 0xa0, 0x10, 0x80, 0x10, 0x80, 0x1f, 0x80, 0x10,
   0x80, 0x10, 0x80, 0x10 };
