#define usb_width 14
#define usb_height 14
static unsigned char usb_bits[] = {
   0xf8, 0x03, 0xf8, 0x03, 0xf8, 0x03, 0xb8, 0x03, 0x18, 0x03, 0xbe, 0x0f,
   0xbe, 0x0c, 0xb2, 0x0c, 0x32, 0x0f, 0xae, 0x0f, 0x9e, 0x0f, 0xbe, 0x0f,
   0x1e, 0x0f, 0xbe, 0x0f };
