#define wifi_width 14
#define wifi_height 14
static unsigned char wifi_bits[] = {
   0x00, 0x00, 0x00, 0x00, 0xf0, 0x03, 0x0c, 0x0c, 0x02, 0x10, 0xf1, 0x23,
   0x08, 0x04, 0x04, 0x08, 0xe0, 0x01, 0x10, 0x02, 0x00, 0x00, 0xc0, 0x00,
   0xe0, 0x01, 0x00, 0x00 };
